<svg t="1739976700263" class="icon" viewBox="0 0 1024 1024" version="1.1" xmlns="http://www.w3.org/2000/svg" p-id="5941" width="200" height="200"><path d="M198.681284 382.091062a351.522765 351.522765 0 1 0 703.045531 0c0-194.142815-157.379951-351.522765-351.522766-351.522766-194.130173 0-351.522765 157.392593-351.522765 351.522766z" fill="#FFCA22" p-id="5942"></path><path d="M504.364247 1008.715852C225.810963 1008.715852 0 782.904889 0 504.364247 0 225.810963 225.810963 0 504.364247 0 782.904889 0 1008.70321 225.810963 1008.70321 504.364247c0 278.540642-225.810963 504.351605-504.351605 504.351605z m0-947.579259c-244.786568 0-443.227654 198.441086-443.227654 443.227654 0 244.773926 198.441086 443.227654 443.227654 443.227654 244.773926 0 443.227654-198.453728 443.227654-443.227654 0-244.786568-198.453728-443.227654-443.227654-443.227654z" fill="#333333" p-id="5943"></path><path d="M770.907654 305.682963c-8.937877 0-17.433284-3.919012-23.23595-10.707753a320.954469 320.954469 0 0 0-243.307457-111.578074 30.568296 30.568296 0 0 1 0-61.123951 382.091062 382.091062 0 0 1 290.386173 132.968296 30.568296 30.568296 0 0 1-23.842766 50.441482zM993.431704 1024a30.568296 30.568296 0 0 1-21.554568-9.013728l-152.841482-152.841482a30.568296 30.568296 0 0 1 43.109136-43.109136l152.841482 152.841482A30.568296 30.568296 0 0 1 993.431704 1024z" fill="#333333" p-id="5944"></path></svg>
