<svg t="1741243733156" class="icon" viewBox="0 0 1024 1024" version="1.1" xmlns="http://www.w3.org/2000/svg" p-id="13600" width="200" height="200"><path d="M879.709091 977.454545H444.509091c-51.2 0-93.090909-41.890909-93.090909-93.090909V283.927273c0-51.2 41.890909-93.090909 93.090909-93.090909h437.527273c51.2 0 93.090909 41.890909 93.090909 93.090909V884.363636c-2.327273 51.2-44.218182 93.090909-95.418182 93.090909z" fill="#F5D34C" p-id="13601"></path><path d="M688.872727 46.545455H167.563636c-65.163636 0-116.363636 51.2-116.363636 116.363636v688.872727c0 65.163636 51.2 116.363636 116.363636 116.363637h521.309091c65.163636 0 116.363636-51.2 116.363637-116.363637V162.909091c-2.327273-65.163636-53.527273-116.363636-116.363637-116.363636zM451.490909 93.090909H605.090909c-2.327273 2.327273-2.327273 4.654545-2.327273 6.981818v230.4l-65.163636-62.836363c-4.654545-4.654545-11.636364-6.981818-16.290909-6.981819-6.981818 0-11.636364 2.327273-16.290909 9.309091l-51.2 60.509091V100.072727c-2.327273-2.327273-2.327273-4.654545-2.327273-6.981818zM97.745455 849.454545V162.909091c0-39.563636 30.254545-69.818182 69.818181-69.818182H232.727273v828.509091H167.563636c-39.563636-2.327273-69.818182-32.581818-69.818181-72.145455z m658.618181 0c0 39.563636-30.254545 69.818182-69.818181 69.818182H281.6V93.090909h125.672727c0 2.327273-2.327273 4.654545-2.327272 6.981818v228.072728c0 30.254545 23.272727 53.527273 53.527272 53.527272 6.981818 0 13.963636-2.327273 18.618182-9.309091l46.545455-53.527272 55.854545 55.854545c4.654545 4.654545 9.309091 6.981818 16.290909 6.981818 30.254545 0 53.527273-23.272727 53.527273-53.527272V100.072727c0-2.327273 0-4.654545-2.327273-6.981818h41.890909c39.563636 0 69.818182 30.254545 69.818182 69.818182-2.327273 0-2.327273 686.545455-2.327273 686.545454z" fill="#222" p-id="13602"></path></svg>
