<svg t="1739266466059" class="icon" viewBox="0 0 1024 1024" version="1.1" xmlns="http://www.w3.org/2000/svg" p-id="6358" width="200" height="200"><path d="M857.6 128H162.133333C106.666667 128 59.733333 174.933333 59.733333 230.4v439.466667c0 55.466667 46.933333 102.4 102.4 102.4h345.6v162.133333c0 17.066667 12.8 29.866667 34.133334 29.866667 8.533333 0 17.066667-4.266667 21.333333-8.533334l213.333333-183.466666h81.066667c55.466667 0 102.4-46.933333 102.4-102.4V230.4c0-55.466667-46.933333-102.4-102.4-102.4z m38.4 537.6c0 21.333333-17.066667 38.4-38.4 38.4H768c-8.533333 0-17.066667 4.266667-21.333333 8.533333l-170.666667 145.066667v-123.733333c0-17.066667-12.8-34.133333-34.133333-34.133334H162.133333c-21.333333 0-38.4-17.066667-38.4-38.4V230.4c0-21.333333 17.066667-38.4 38.4-38.4h695.466667c21.333333 0 38.4 17.066667 38.4 38.4v435.2z" fill="#000" p-id="6359"></path><path d="M494.933333 405.333333h106.666667c17.066667 0 34.133333 12.8 34.133333 34.133334v106.666666c0 17.066667-12.8 34.133333-34.133333 34.133334h-106.666667c-17.066667 0-34.133333-12.8-34.133333-34.133334v-106.666666c4.266667-21.333333 17.066667-34.133333 34.133333-34.133334z" fill="#FEDA49" p-id="6360"></path><path d="M482.133333 384h64c17.066667 0 34.133333 12.8 34.133334 34.133333v64c0 17.066667-12.8 34.133333-34.133334 34.133334h-64c-17.066667 0-34.133333-12.8-34.133333-34.133334V418.133333c0-21.333333 12.8-34.133333 34.133333-34.133333z" fill="#1B2A4D" p-id="6361"></path><path d="M704 405.333333H810.666667c17.066667 0 34.133333 12.8 34.133333 34.133334v106.666666c0 17.066667-12.8 34.133333-34.133333 34.133334h-106.666667c-17.066667 0-34.133333-12.8-34.133333-34.133334v-106.666666c4.266667-21.333333 17.066667-34.133333 34.133333-34.133334z" fill="#FEDA49" p-id="6362"></path><path d="M686.933333 384h64c17.066667 0 34.133333 12.8 34.133334 34.133333v64c0 17.066667-12.8 34.133333-34.133334 34.133334h-64c-17.066667 0-34.133333-12.8-34.133333-34.133334V418.133333c4.266667-21.333333 17.066667-34.133333 34.133333-34.133333z" fill="#1B2A4D" p-id="6363"></path><path d="M290.133333 405.333333h106.666667c17.066667 0 34.133333 12.8 34.133333 34.133334v106.666666c0 17.066667-12.8 34.133333-34.133333 34.133334H290.133333c-17.066667 0-34.133333-12.8-34.133333-34.133334v-106.666666c0-21.333333 12.8-34.133333 34.133333-34.133334z" fill="#FEDA49" p-id="6364"></path><path d="M273.066667 384h64c17.066667 0 34.133333 12.8 34.133333 34.133333v64c0 17.066667-12.8 34.133333-34.133333 34.133334H273.066667c-17.066667 0-34.133333-12.8-34.133334-34.133334V418.133333c0-21.333333 17.066667-34.133333 34.133334-34.133333z" fill="#1B2A4D" p-id="6365"></path></svg>
