<svg class="icon" viewBox="0 0 1024 1024" version="1.1" xmlns="http://www.w3.org/2000/svg" width="200" height="200">
  <path
    d="M839.8 364.5h-75.5S732 256.7 645.7 256.7h-86.2c-86.2 0-118.6 107.8-118.6 107.8H279.2c-59.3 0-107.8 48.5-107.8 107.8v301.9c0 59.3 48.5 107.8 107.8 107.8h560.6c59.3 0 107.8-48.5 107.8-107.8V472.3c0.1-59.3-48.5-107.8-107.8-107.8z"
    fill="#F9EE8C"/>
  <path
    d="M538 450.8c59.4 0 107.8 48.4 107.8 107.8S597.4 666.4 538 666.4 430.2 618 430.2 558.6 478.5 450.8 538 450.8m0-64.7c-95.3 0-172.5 77.2-172.5 172.5S442.7 731.1 538 731.1s172.5-77.2 172.5-172.5S633.2 386.1 538 386.1z"
    fill="#333"/>
  <path
    d="M775.2 299.8h-75.5S667.4 192 581.1 192h-86.2c-86.2 0-118.6 107.8-118.6 107.8H214.5c-59.3 0-107.8 48.5-107.8 107.8v301.9c0 59.3 48.5 107.8 107.8 107.8h560.6c59.3 0 107.8-48.5 107.8-107.8V407.6c0.1-59.3-48.4-107.8-107.7-107.8z m43.1 409.7c0 23.4-19.7 43.1-43.1 43.1H214.5c-23.4 0-43.1-19.7-43.1-43.1V407.6c0-23.4 19.7-43.1 43.1-43.1h161.7c28.2 0 53.3-18.8 61.8-45.7 0.2-0.6 21.3-62.2 56.8-62.2H581c35.5 0 56.6 61.5 56.6 61.7 8.2 27.4 33.4 46.1 62 46.1h75.5c23.4 0 43.1 19.7 43.1 43.1v302z"
    fill="#333"/>
  <path
    d="M764.4 386.1h-43.1c-11.9 0-21.6 9.7-21.6 21.6s9.7 21.6 21.6 21.6h43.1c11.9 0 21.6-9.7 21.6-21.6s-9.8-21.6-21.6-21.6zM300.8 235.1h-64.7c-11.9 0-21.6 9.7-21.6 21.6v21.6h107.8v-21.6c0-11.9-9.7-21.6-21.5-21.6z"
    fill="#333"/>
</svg>
