<svg t="1739430909177" class="icon" viewBox="0 0 1024 1024" version="1.1" xmlns="http://www.w3.org/2000/svg" p-id="11503" width="200" height="200"><path d="M641.91 480.69m-152.69 0a152.69 152.69 0 1 0 305.38 0 152.69 152.69 0 1 0-305.38 0Z" fill="#4DBBF7" p-id="11504"></path><path d="M256.15 807H778v36H256.15zM519.2 743.44l-12.14-10.91c-2.26-2.03-56.06-50.54-110.75-114.64-75.24-88.19-113.39-160.24-113.39-214.15 0-62.55 24.36-121.35 68.58-165.58s103.03-68.58 165.58-68.58 121.35 24.36 165.58 68.58 68.58 103.03 68.58 165.58c0 53.85-37.44 125.86-111.28 214.03-53.69 64.11-106.5 112.62-108.72 114.65l-12.04 11.02z m-2.12-537.86c-109.27 0-198.16 88.89-198.16 198.16 0 44.41 36.15 110.29 104.53 190.49 38.06 44.64 76.54 82.28 95.53 100.23 18.67-18 56.36-55.57 93.64-100.11 67.14-80.23 102.63-146.14 102.63-190.62 0-109.27-88.89-198.16-198.16-198.16z" fill="#444444" p-id="11505"></path><path d="M517.08 507.56c-61.05 0-110.71-49.67-110.71-110.71s49.67-110.71 110.71-110.71 110.71 49.67 110.71 110.71-49.67 110.71-110.71 110.71z m0-185.43c-41.2 0-74.71 33.52-74.71 74.71s33.52 74.71 74.71 74.71 74.71-33.52 74.71-74.71-33.52-74.71-74.71-74.71z" fill="#444444" p-id="11506"></path></svg>
