<svg t="1738913798487" class="icon" viewBox="0 0 1024 1024" version="1.1" xmlns="http://www.w3.org/2000/svg" p-id="16201" width="200" height="200"><path d="M631.466667 998.4c-12.8 0-25.6 0-34.133334-4.266667-29.866667-12.8-59.733333-29.866667-72.533333-64l-128-281.6c-8.533333-8.533333-12.8-12.8-21.333333-17.066666l-298.666667-149.333334c-25.6-17.066667-46.933333-38.4-59.733333-68.266666C8.533333 384 8.533333 349.866667 25.6 324.266667s38.4-46.933333 68.266667-59.733334L832 12.8c64-21.333333 128 12.8 149.333333 76.8 8.533333 25.6 8.533333 51.2 0 76.8l-234.666666 759.466667c-17.066667 42.666667-64 72.533333-115.2 72.533333zM866.133333 85.333333c-4.266667 0-8.533333 0-12.8 4.266667L119.466667 337.066667c-12.8 4.266667-21.333333 8.533333-25.6 21.333333-4.266667 8.533333-8.533333 21.333333-4.266667 25.6 4.266667 12.8 12.8 21.333333 21.333333 25.6l298.666667 149.333333c25.6 12.8 42.666667 29.866667 55.466667 55.466667l128 281.6c4.266667 12.8 12.8 21.333333 25.6 21.333333 21.333333 8.533333 42.666667-4.266667 51.2-25.6L904.533333 128v-17.066667c-8.533333-17.066667-21.333333-25.6-38.4-25.6z" p-id="16202"></path><path d="M606.848 719.104h-12.8c-17.066667-4.266667-29.866667-25.6-21.333333-51.2l59.733333-179.2c4.266667-21.333333 25.6-29.866667 46.933333-25.6 21.333333 8.533333 29.866667 25.6 25.6 51.2l-59.733333 183.466667c-8.533333 12.8-21.333333 21.333333-38.4 21.333333z" fill="#396EFE" p-id="16203"></path></svg>
