<svg t="1739978048721" class="icon" viewBox="0 0 1024 1024" version="1.1" xmlns="http://www.w3.org/2000/svg" p-id="8828" width="200" height="200"><path d="M512 0a512 512 0 0 0-512 512 512 512 0 0 0 512 512 512 512 0 0 0 512-512 512 512 0 0 0-512-512m0 56.888889c250.936889 0 455.111111 204.174222 455.111111 455.111111s-204.174222 455.111111-455.111111 455.111111-455.111111-204.174222-455.111111-455.111111 204.174222-455.111111 455.111111-455.111111" fill="#5A73A7" p-id="8829"></path><path d="M739.555556 512a227.555556 227.555556 0 1 1-455.111112 0 227.555556 227.555556 0 0 1 455.111112 0" fill="#5A73A7" opacity=".1" p-id="8830"></path><path d="M464.611556 528.668444h56.888888V227.612444h-56.888888z" fill="#5A73A7" p-id="8831"></path><path d="M495.786667 481.052444l-31.232 47.559112 262.826666 172.487111 31.175111-47.559111z" fill="#5A73A7" p-id="8832"></path></svg>
