<svg t="1739517851402" class="icon" viewBox="0 0 1024 1024" version="1.1" xmlns="http://www.w3.org/2000/svg" p-id="17110" width="200" height="200"><path d="M502.400978 605.566865H300.801356c-24.639954 0-44.799916 22.143958-44.799916 49.215907 0 27.071949 20.159962 49.215908 44.799916 49.215908h201.599622c24.639954 0 44.799916-22.143958 44.799916-49.279908 0-27.007949-20.159962-49.151908-44.799916-49.151907zM659.200684 383.99928H300.801356c-24.639954 0-44.799916 22.143958-44.799916 49.279908 0 27.007949 20.159962 49.151908 44.799916 49.151907h358.399328c24.639954 0 44.799916-22.143958 44.799916-49.215907 0-27.071949-20.159962-49.215908-44.799916-49.215908z" fill="#3688FF" p-id="17111"></path><path d="M512.00096 0C230.401488 0 0.00192 230.399568 0.00192 511.99904v302.527433A208.639609 208.639609 0 0 0 209.473527 1023.99808H512.00096c281.599472 0 511.99904-230.399568 511.99904-511.99904s-230.399568-511.99904-511.99904-511.99904z m0 930.878255H209.473527a115.199784 115.199784 0 0 1-116.351782-116.351782V511.99904C93.121745 281.599472 281.601392 93.119825 512.00096 93.119825S930.880175 281.599472 930.880175 511.99904 742.400528 930.878255 512.00096 930.878255z" fill="#333333" p-id="17112"></path></svg>
