<svg t="1739980037961" class="icon" viewBox="0 0 1024 1024" version="1.1" xmlns="http://www.w3.org/2000/svg" p-id="20923" width="200" height="200"><path d="M0 512a512 512 0 1 0 1024 0A512 512 0 1 0 0 512z" fill="#E6F0FF" p-id="20924"></path><path d="M771.115 173.61A424.064 424.064 0 0 0 512 85.334c-234.667 0-426.667 192-426.667 426.667 0 97.28 32.982 187.136 88.278 259.115l597.504-597.462z m62.208 58.454L232.107 833.323A424.661 424.661 0 0 0 512 938.667c234.667 0 426.667-192 426.667-426.667a424.661 424.661 0 0 0-105.344-279.893zM1024 512c0 283.093-228.907 512-512 512S0 795.093 0 512 228.907 0 512 0s512 228.907 512 512z" fill="#2E82FF" p-id="20925"></path></svg>
