<svg t="1739188348316" class="icon" viewBox="0 0 1024 1024" version="1.1" xmlns="http://www.w3.org/2000/svg" p-id="1362" width="200" height="200"><path d="M603.95 236.11l69.67 141.17a40.927 40.927 0 0 0 30.83 22.4l155.79 22.64c33.59 4.88 47 46.16 22.69 69.85L770.2 602.06a40.972 40.972 0 0 0-11.78 36.24l26.61 155.16c5.74 33.45-29.37 58.96-59.41 43.17l-139.34-73.26a40.958 40.958 0 0 0-38.11 0l-139.34 73.26c-30.04 15.79-65.15-9.72-59.41-43.17l26.61-155.16a40.936 40.936 0 0 0-11.78-36.24L251.52 492.17c-24.3-23.69-10.89-64.96 22.69-69.85L430 399.68a40.927 40.927 0 0 0 30.83-22.4l69.67-141.17c15.02-30.43 58.42-30.43 73.44 0z" fill="#F9EE8C" p-id="1363"></path><path d="M698.74 831.89c-9.29 0-18.62-2.24-27.25-6.78l-139.34-73.26a23.45 23.45 0 0 0-21.82 0l-139.34 73.26c-19.84 10.43-43.42 8.72-61.55-4.45-18.13-13.17-27.04-35.08-23.25-57.17l26.61-155.16c1.3-7.61-1.22-15.37-6.74-20.75l-21.93-21.37c-6.92-6.75-7.06-17.83-0.32-24.75 6.75-6.92 17.83-7.06 24.75-0.32l21.93 21.37a58.435 58.435 0 0 1 16.81 51.73L320.69 769.4c-1.54 9 1.94 17.57 9.33 22.93s16.62 6.03 24.69 1.78l139.34-73.26a58.465 58.465 0 0 1 54.4 0l139.34 73.26c8.08 4.25 17.31 3.58 24.69-1.78 7.38-5.36 10.87-13.94 9.33-22.93L695.2 614.24a58.435 58.435 0 0 1 16.81-51.73l112.73-109.89c6.54-6.37 8.75-15.36 5.93-24.04s-9.9-14.65-18.93-15.96l-155.79-22.64a58.464 58.464 0 0 1-44.01-31.97l-69.67-141.17c-4.04-8.18-11.9-13.07-21.03-13.07s-16.99 4.89-21.03 13.07l-69.67 141.17a58.44 58.44 0 0 1-44.01 31.97l-155.79 22.64c-9.77 1.42-14.73 7.65-16.82 11.23-3.66 6.28-4.32 13.93-1.77 20.46 3.52 9-0.93 19.15-9.93 22.67s-19.15-0.93-22.67-9.93c-6.4-16.38-4.86-35.37 4.12-50.8 8.95-15.38 24.27-25.68 42.03-28.26l155.79-22.64a23.465 23.465 0 0 0 17.66-12.83l69.67-141.17c9.92-20.1 30-32.58 52.41-32.58s42.49 12.48 52.41 32.58l69.67 141.17a23.465 23.465 0 0 0 17.66 12.83l155.79 22.64c22.18 3.22 40.26 18.47 47.18 39.78s1.26 44.27-14.79 59.92L736.42 587.58a23.42 23.42 0 0 0-6.74 20.75l26.61 155.16c3.79 22.09-5.12 43.99-23.25 57.17-10.24 7.44-22.23 11.22-34.3 11.23z" fill="#222222" p-id="1364"></path><path d="M521.23 604.47c-51.14 0-92.75-41.61-92.75-92.75 0-9.67 7.83-17.5 17.5-17.5s17.5 7.83 17.5 17.5c0 31.84 25.91 57.75 57.75 57.75s57.75-25.91 57.75-57.75c0-9.67 7.83-17.5 17.5-17.5s17.5 7.83 17.5 17.5c0 51.14-41.61 92.75-92.75 92.75z" fill="#222222" p-id="1365"></path><path d="M242.5 502.5m-19.5 0a19.5 19.5 0 1 0 39 0 19.5 19.5 0 1 0-39 0Z" fill="#222222" p-id="1366"></path></svg>
