<svg t="1739266989947" class="icon" viewBox="0 0 1024 1024" version="1.1" xmlns="http://www.w3.org/2000/svg" p-id="5454" width="200" height="200"><path d="M265.11 743.87c-0.04 17.39 6.58 34.21 18.73 46.66 42.97 44.03 150.54 75.3 276.17 75.3 124.07 0 230.52-30.5 274.54-72.55 13.11-12.52 20.4-29.96 20.44-48.09l0.02-9.55c-13.72-105.9-140.85-188.99-295.12-188.83-154.28 0.16-281.24 83.51-294.74 185.66l-0.02 11.39z" fill="#FEDA49" p-id="5455"></path><path d="M560.05 395.21m-150 0a150 150 0 1 0 300 0 150 150 0 1 0-300 0Z" fill="#FEDA49" p-id="5456"></path><path d="M512.01 849.33c-49.4 0-96.6-4.61-140.28-13.69-9.46-1.97-15.54-11.23-13.57-20.7 1.97-9.46 11.23-15.54 20.7-13.57 40.76 8.48 86.81 12.96 133.16 12.96 58.32 0 114.59-6.88 162.72-19.9 44.7-12.09 80.12-29.07 99.73-47.8 9.52-9.09 14.99-22.02 15.02-35.47l0.02-8.37c-6.33-45.82-37.13-88.62-86.83-120.62-51.94-33.45-119.53-51.86-190.35-51.86h-0.42c-70.73 0.07-138.48 18.48-190.77 51.84-49.57 31.62-80.25 73.32-86.5 117.53l-0.02 10.22c-0.03 13.07 4.86 25.29 13.76 34.4 6.75 6.92 6.62 18-0.3 24.75s-18 6.61-24.75-0.3c-15.33-15.71-23.75-36.64-23.71-58.92l0.02-11.39c0-0.76 0.05-1.51 0.15-2.26 7.28-55.03 43.69-106.01 102.52-143.54 57.83-36.89 132.25-57.25 209.55-57.33h0.46c77.47 0 151.78 20.39 209.3 57.43 58.91 37.94 95.4 90.02 102.73 146.65 0.1 0.76 0.15 1.52 0.15 2.29l-0.02 9.55c-0.05 22.93-9.47 45.06-25.85 60.7-49.22 47.01-161.72 77.39-286.62 77.39z" fill="#222222" p-id="5457"></path><path d="M512.05 528.71c-92.36 0-167.5-75.14-167.5-167.5s75.14-167.5 167.5-167.5 167.5 75.14 167.5 167.5-75.14 167.5-167.5 167.5z m0-300c-73.06 0-132.5 59.44-132.5 132.5s59.44 132.5 132.5 132.5 132.5-59.44 132.5-132.5-59.44-132.5-132.5-132.5z" fill="#222222" p-id="5458"></path><path d="M512.07 454.11c-39.12 0-70.95-31.83-70.95-70.95 0-9.67 7.83-17.5 17.5-17.5s17.5 7.83 17.5 17.5c0 19.82 16.13 35.95 35.95 35.95s35.95-16.13 35.95-35.95c0-9.67 7.83-17.5 17.5-17.5s17.5 7.83 17.5 17.5c0 39.12-31.83 70.95-70.95 70.95z" fill="#222222" p-id="5459"></path><path d="M303.5 795.5m-19.5 0a19.5 19.5 0 1 0 39 0 19.5 19.5 0 1 0-39 0Z" fill="#222222" p-id="5460"></path></svg>
