<svg t="1739192823531" class="icon" viewBox="0 0 1024 1024" version="1.1" xmlns="http://www.w3.org/2000/svg" p-id="17468" width="200" height="200"><path d="M487.648 240a16 16 0 0 1 16-16h16a16 16 0 0 1 16 16v546.784a16 16 0 0 1-16 16h-16a16 16 0 0 1-16-16V240z m155.84 89.04a16 16 0 0 1 16-16h16a16 16 0 0 1 16 16v346.432a16 16 0 0 1-16 16h-16a16 16 0 0 1-16-16V329.04z m155.824 144.704a16 16 0 0 1 16-16h16a16 16 0 0 1 16 16v123.824a16 16 0 0 1-16 16h-16a16 16 0 0 1-16-16v-123.84z m-467.488-144.704a16 16 0 0 1 16-16h16a16 16 0 0 1 16 16v346.432a16 16 0 0 1-16 16h-16a16 16 0 0 1-16-16V329.04zM176 473.76a16 16 0 0 1 16-16h16a16 16 0 0 1 16 16v112.688a16 16 0 0 1-16 16h-16a16 16 0 0 1-16-16V473.76z" fill="#000" p-id="17469"></path></svg>
