<svg t="1740162598477" class="icon" viewBox="0 0 1024 1024" version="1.1" xmlns="http://www.w3.org/2000/svg" p-id="6237" width="200" height="200"><path d="M655.9744 482.7648l2.3552-19.1488c6.4512-53.3504 33.024-100.5056 79.5648-141.312-42.3424-21.504-83.3536-18.8416-123.0336 7.936-59.4944 40.192-74.7008 159.6416-74.7008 202.9056 0 1.536 0.1024 2.9696 0.3072 4.3008V660.48a56.32 56.32 0 0 0 56.32 56.32H711.68a56.32 56.32 0 0 0 56.32-56.32v-121.3952a56.32 56.32 0 0 0-56.32-56.32h-55.7056z m-284.1088 0l2.3552-19.1488c6.4512-53.3504 33.024-100.5056 79.5648-141.312-42.3424-21.504-83.3536-18.8416-123.0336 7.936-59.4944 40.192-74.7008 159.6416-74.7008 202.9056l0.0512 2.1504a57.1392 57.1392 0 0 0-0.1024 3.7888V660.48A56.32 56.32 0 0 0 312.32 716.8h114.8928a56.32 56.32 0 0 0 56.32-56.32v-121.3952a56.32 56.32 0 0 0-56.32-56.32h-55.296zM512 1024C229.2224 1024 0 794.7776 0 512S229.2224 0 512 0s512 229.2224 512 512-229.2224 512-512 512z" fill="#999" p-id="6238"></path></svg>
