<svg t="1738914410236" class="icon" viewBox="0 0 1024 1024" version="1.1" xmlns="http://www.w3.org/2000/svg" p-id="11406" width="200" height="200"><path d="M856.4 490.3h78c10.7 0 19.4 8.7 19.4 19.4s-8.7 19.4-19.4 19.4h-78c-9.7 177.1-151.6 319-328.7 328.7v78c0 10.7-8.7 19.4-19.4 19.4s-19.4-8.7-19.4-19.4v-78c-177.1-9.7-319-151.6-328.7-328.7h-78c-10.7 0-19.4-8.7-19.4-19.4s8.7-19.4 19.4-19.4h78c9.7-177.1 151.6-319 328.7-328.7v-78c0-10.7 8.7-19.4 19.4-19.4s19.4 8.7 19.4 19.4v78c177 9.7 318.9 151.6 328.7 328.7zM508.2 819.6c171.2 0 309.9-138.7 309.9-309.9S679.4 199.8 508.2 199.8 198.4 338.5 198.4 509.7s138.7 309.9 309.8 309.9z m0-174.3c-74.9 0-135.6-60.7-135.6-135.6s60.7-135.6 135.6-135.6 135.6 60.7 135.6 135.6-60.7 135.6-135.6 135.6z m0-38.8c34.6 0 66.6-18.5 83.9-48.4 17.3-30 17.3-66.9 0-96.8-17.3-30-49.3-48.4-83.9-48.4-53.5 0-96.8 43.4-96.8 96.8 0 53.5 43.4 96.8 96.8 96.8z" fill="#333333" p-id="11407"></path><path d="M915 916.4v-96.9c0-10.5 8.7-19.3 19.4-19.3 10.8 0 19.4 8.6 19.4 19.3v116.3c0 5.2-2.2 10.1-5.7 13.6-3.6 3.7-8.5 5.7-13.7 5.7H818.1c-10.5 0-19.3-8.7-19.3-19.4 0-10.8 8.6-19.4 19.3-19.4H915zM915 103h-96.9c-10.5 0-19.3-8.7-19.3-19.4 0-10.8 8.6-19.4 19.3-19.4h116.3c5.2 0 10.1 2.2 13.6 5.7 3.6 3.5 5.7 8.3 5.7 13.7v116.3c0 10.5-8.7 19.3-19.4 19.3-10.8 0-19.4-8.6-19.4-19.3V103zM68.4 949.4c-3.6-3.6-5.6-8.5-5.7-13.6V819.5c0-10.7 8.6-19.3 19.4-19.3 10.7 0 19.4 8.8 19.4 19.3v96.9h96.9c10.7 0 19.3 8.6 19.3 19.4 0 10.7-8.8 19.4-19.3 19.4H82.1c-5.1 0-10-2-13.7-5.8zM68.5 69.9c3.6-3.6 8.5-5.6 13.6-5.7h116.3c10.7 0 19.3 8.6 19.3 19.4 0 10.7-8.8 19.4-19.3 19.4h-96.9v96.9c0 10.7-8.6 19.3-19.4 19.3-10.7 0-19.4-8.8-19.4-19.3V83.5c0.1-5.3 2.2-10.1 5.8-13.6z" fill="#00A4BD" p-id="11408"></path></svg>
