<svg t="1738913160397" class="icon" viewBox="0 0 1024 1024" version="1.1" xmlns="http://www.w3.org/2000/svg" p-id="1444" width="200" height="200"><path d="M327.726545 407.272727a188.602182 183.575273 90 1 0 367.150546 0 188.602182 183.575273 90 1 0-367.150546 0Z" fill="#83C8EC" p-id="1445"></path><path d="M511.301818 22.900364C299.752727 22.900364 127.627636 199.307636 127.627636 416.069818c0 108.218182 44.218182 212.759273 120.366546 286.021818l208.197818 212.247273H380.695273a40.494545 40.494545 0 0 0-40.401455 40.494546c0 22.388364 18.106182 40.541091 40.401455 40.54109h261.213091a40.494545 40.494545 0 0 0 40.401454-40.494545 40.494545 40.494545 0 0 0-40.401454-40.541091h-75.496728l207.778909-211.874909c76.8-73.960727 120.785455-178.269091 120.785455-286.394182C894.976 199.307636 722.850909 22.900364 511.301818 22.900364z m206.568727 621.474909a34.862545 34.862545 0 0 0-0.884363 0.837818l-205.684364 209.780364-206.568727-210.618182c-62.138182-59.717818-96.349091-140.8-96.349091-228.305455 0-172.078545 135.912727-312.133818 302.917818-312.133818s302.917818 140.055273 302.917818 312.133818a317.579636 317.579636 0 0 1-96.349091 228.305455z" fill="#000A64" p-id="1446"></path><path d="M511.301818 180.037818c-123.485091 0-223.976727 102.772364-223.976727 229.096727 0 126.324364 100.491636 229.143273 223.976727 229.143273 123.485091 0 223.976727-102.818909 223.976727-229.143273 0-126.277818-100.491636-229.096727-223.976727-229.096727z m0 377.204364c-78.941091 0-143.173818-66.420364-143.173818-148.107637 0-81.640727 64.232727-148.014545 143.173818-148.014545 78.941091 0 143.173818 66.373818 143.173818 148.014545 0 81.687273-64.232727 148.107636-143.173818 148.107637z" fill="#000A64" p-id="1447"></path></svg>
