<svg t="1739790846621" class="icon" viewBox="0 0 1024 1024" version="1.1" xmlns="http://www.w3.org/2000/svg" p-id="12171" width="200" height="200"><path d="M481.2288 859.5968c-192.1024 0-348.3648-156.3136-348.3648-348.3648s156.3136-348.3648 348.3648-348.3648c192.1024 0 348.3648 156.3136 348.3648 348.3648 0 19.2512-15.5648 34.816-34.816 34.816s-34.816-15.5648-34.816-34.816c0-153.6512-125.0304-278.6816-278.6816-278.6816-153.7024 0-278.7328 125.0304-278.7328 278.6816S327.5776 789.9136 481.28 789.9136c19.2512 0 34.816 15.5648 34.816 34.816-0.0512 19.3024-15.616 34.8672-34.8672 34.8672z" fill="#555555" p-id="12172"></path><path d="M801.9968 567.1424c-7.3728 0-14.7968-2.304-21.1456-7.168l-94.6688-72.2944a34.93888 34.93888 0 0 1-6.5536-48.8448c11.7248-15.2576 33.5872-18.176 48.8448-6.5536l94.6688 72.2944a34.93888 34.93888 0 0 1 6.5536 48.8448 34.68288 34.68288 0 0 1-27.6992 13.7216z" fill="#00A4BD" p-id="12173"></path><path d="M801.1776 567.296c-6.1952 0-12.4928-1.6896-18.176-5.12a34.89792 34.89792 0 0 1-11.52-47.9232l64.768-105.6768c10.0352-16.384 31.488-21.5552 47.9232-11.52a34.89792 34.89792 0 0 1 11.52 47.9232l-64.768 105.6768a34.74432 34.74432 0 0 1-29.7472 16.64z" fill="#00A4BD" p-id="12174"></path></svg>
